# xmcd
#
# Track frame offsets:
#	150
#	15710
#	30059
#	46309
#	67391
#	83974
#	100979
#	122103
#	145627
#	161977
#	178027
#	199118
#	217361
#	238394
#	259360
#	277504
#
# Disc length: 3934 seconds
# Revision: 0
# Processed by: cddbd v1.5.2PL0 Copyright (c) Steve Scherf et al.
# Submitted via: dBpowerAMP V12.0
#
DISCID=ef0f5c10
DTITLE=Vlado Kreslin - Če bi se midva še kdaj srečala
DYEAR=1900
DGENRE=POP
TTITLE0=Če bi se midva še kdaj srečala
TTITLE1=Sami naši
TTITLE2=Moji dnevi
TTITLE3=Stari komadi
TTITLE4=Preden zaspim
TTITLE5=Odkar te ni
TTITLE6=Reka
TTITLE7=Pozdravljena, soseda
TTITLE8=Petelini
TTITLE9=Golob
TTITLE10=Vlado i Dado
TTITLE11=Esa Negra Gitarra
TTITLE12=Sweetest Taboo
TTITLE13=Lepa sire
TTITLE14=I barval pudela
TTITLE15=Dobri den
EXTD=
EXTT0=
EXTT1=
EXTT2=
EXTT3=
EXTT4=
EXTT5=
EXTT6=
EXTT7=
EXTT8=
EXTT9=
EXTT10=
EXTT11=
EXTT12=
EXTT13=
EXTT14=
EXTT15=
PLAYORDER=
